<svg xmlns="http://www.w3.org/2000/svg" viewBox="0 0 64 64">
  <circle cx="32" cy="34" r="29" fill="#d4a017"/>
  <g transform="translate(32 34)">
    <path d="M0 0L0-25A25 25 0 0 1 21.65-12.5Z" fill="#c1121f"/>
    <path d="M0 0L21.65-12.5A25 25 0 0 1 21.65 12.5Z" fill="#e89a00"/>
    <path d="M0 0L21.65 12.5A25 25 0 0 1 0 25Z" fill="#1d6fb8"/>
    <path d="M0 0L0 25A25 25 0 0 1-21.65 12.5Z" fill="#7b2cbf"/>
    <path d="M0 0L-21.65 12.5A25 25 0 0 1-21.65-12.5Z" fill="#23894a"/>
    <path d="M0 0L-21.65-12.5A25 25 0 0 1 0-25Z" fill="#e05a0b"/>
    <circle r="7" fill="#ffe066" stroke="#7a4b00" stroke-width="2"/>
  </g>
  <path d="M25 1h14l-7 14z" fill="#e63946" stroke="#ffe066" stroke-width="2" stroke-linejoin="round"/>
</svg>
